<?xml version="1.0" standalone="no"?>
<!DOCTYPE svg PUBLIC "-//W3C//DTD SVG 20010904//EN"
 "http://www.w3.org/TR/2001/REC-SVG-20010904/DTD/svg10.dtd">
<svg version="1.0" xmlns="http://www.w3.org/2000/svg"
 width="1000.000000pt" height="1000.000000pt" viewBox="0 0 1000.000000 1000.000000"
 preserveAspectRatio="xMidYMid meet">
<metadata>
Created by potrace 1.14, written by Peter Selinger 2001-2017
</metadata>
<g transform="translate(0.000000,1000.000000) scale(0.100000,-0.100000)"
fill="#000000" stroke="none">
<path d="M827 9984 c-391 -71 -700 -361 -800 -751 l-22 -88 0 -4145 0 -4145
23 -90 c30 -120 116 -294 192 -388 140 -174 327 -293 547 -350 l88 -22 4145 0
4145 0 90 23 c120 30 294 116 388 192 174 140 293 327 350 547 l22 88 0 4145
0 4145 -23 90 c-30 120 -116 294 -192 388 -138 171 -322 290 -542 349 l-83 23
-4125 2 c-3508 1 -4137 -1 -4203 -13z m2353 -4275 c404 -616 738 -1123 743
-1125 4 -3 7 501 7 1120 l0 1126 445 0 445 0 0 -1825 0 -1825 -447 2 -447 3
-736 1112 c-404 612 -738 1115 -742 1119 -5 4 -8 -497 -8 -1114 l0 -1122 -445
0 -445 0 0 1825 0 1825 448 -1 447 0 735 -1120z m3170 325 c0 -437 4 -793 8
-790 5 3 278 360 608 795 l599 790 524 1 c417 0 521 -3 514 -12 -6 -7 -323
-410 -707 -895 l-696 -882 723 -918 c398 -505 726 -924 731 -930 6 -10 -104
-13 -536 -12 l-543 0 -610 803 -610 804 -3 -804 -2 -804 -445 0 -445 0 0 1825
0 1825 445 0 445 0 0 -796z"/>
</g>
</svg>
